<?xml version="1.0" standalone="no"?>
<!DOCTYPE svg PUBLIC "-//W3C//DTD SVG 20010904//EN"
 "http://www.w3.org/TR/2001/REC-SVG-20010904/DTD/svg10.dtd">
<svg version="1.0" xmlns="http://www.w3.org/2000/svg"
 width="1254.000000pt" height="868.000000pt" viewBox="0 0 1254.000000 868.000000"
 preserveAspectRatio="xMidYMid meet">

<g transform="translate(0.000000,868.000000) scale(0.100000,-0.100000)"
fill="#000000" stroke="none">
<path d="M17 8669 c-16 -9 -17 -224 -17 -4289 0 -4221 0 -4279 19 -4290 14 -7
1981 -10 6270 -10 l6251 0 0 4300 0 4300 -6252 0 c-4229 -1 -6259 -4 -6271
-11z m6474 -1489 c325 -33 584 -96 847 -206 849 -356 1474 -1108 1666 -2006
46 -212 60 -356 60 -608 -1 -260 -17 -407 -73 -635 -157 -642 -520 -1194
-1046 -1589 -404 -304 -845 -481 -1365 -548 -155 -19 -534 -17 -685 6 -441 65
-839 213 -1177 439 -476 318 -835 751 -1052 1269 -198 472 -264 1041 -180
1538 161 952 803 1760 1696 2134 402 169 900 247 1309 206z"/>
<path d="M6005 7059 c-194 -20 -453 -77 -630 -139 -873 -306 -1531 -1042
-1740 -1945 -120 -519 -68 -1125 140 -1620 312 -745 933 -1311 1698 -1545 273
-84 477 -114 787 -113 324 0 533 32 818 124 410 134 738 331 1046 629 376 366
622 792 747 1295 88 357 99 718 33 1101 -139 817 -665 1534 -1407 1919 -282
146 -534 227 -877 281 -115 18 -489 26 -615 13z m389 -94 c8 -9 13 -22 9 -31
-4 -12 -22 -14 -87 -12 -70 3 -81 6 -84 22 -6 27 15 36 85 36 42 0 66 -5 77
-15z m-357 -21 c9 -25 -12 -37 -84 -46 -72 -8 -102 4 -90 36 10 26 164 36 174
10z m709 -14 c26 -10 31 -32 11 -49 -10 -8 -31 -8 -78 0 -70 12 -95 28 -85 54
5 15 15 17 67 11 34 -4 72 -11 85 -16z m-1069 -46 c9 -24 -15 -40 -87 -57 -55
-14 -67 -14 -79 -2 -22 22 -6 42 46 58 66 20 112 21 120 1z m1388 -33 c37 -13
51 -23 53 -39 5 -33 -20 -36 -93 -12 -68 23 -80 32 -71 55 7 19 49 18 111 -4z
m-1737 -87 c2 -17 -9 -26 -70 -52 -64 -27 -75 -29 -88 -16 -22 21 -4 42 60 69
66 28 94 28 98 -1z m2056 -44 c70 -31 88 -52 65 -76 -13 -12 -24 -9 -87 21
-71 34 -84 49 -60 73 15 15 5 17 82 -18z m-2386 -116 c2 -16 -11 -29 -58 -58
-64 -40 -93 -43 -98 -11 -2 15 13 30 55 57 64 41 96 45 101 12z m2714 -71 c41
-27 58 -44 58 -59 0 -37 -25 -34 -94 12 -36 24 -66 46 -66 48 0 17 15 36 28
36 8 0 42 -17 74 -37z m-3015 -129 c8 -22 -94 -115 -122 -111 -40 4 -29 40 26
85 54 44 86 53 96 26z m3312 -103 c53 -49 59 -66 29 -84 -12 -8 -28 1 -72 38
-52 45 -66 71 -49 88 16 16 42 4 92 -42z m-3586 -142 c14 -23 -78 -131 -108
-127 -35 5 -28 36 21 93 49 56 68 64 87 34z m3835 -120 c45 -55 53 -86 25 -96
-21 -8 -112 92 -113 125 0 41 42 28 88 -29z m-4068 -154 c18 -22 -64 -147 -94
-143 -34 5 -30 34 15 98 43 62 58 70 79 45z m4283 -146 c41 -65 44 -92 11 -97
-16 -2 -29 11 -58 58 -36 61 -42 81 -29 93 18 18 41 1 76 -54z m-4469 -174 c5
-15 -59 -155 -72 -155 -4 0 -17 6 -27 14 -19 14 -19 15 5 67 43 90 77 118 94
74z m4635 -140 c31 -66 33 -110 6 -110 -15 0 -28 17 -52 67 -35 71 -34 101 1
96 14 -2 29 -20 45 -53z m-1007 -54 c183 -50 266 -101 312 -193 54 -109 27
-226 -80 -338 -102 -107 -257 -201 -531 -320 -87 -38 -158 -74 -158 -79 0 -31
309 -347 445 -456 54 -43 70 -62 68 -78 -5 -36 -44 -48 -143 -44 -150 6 -164
15 -414 287 -68 74 -162 181 -209 237 -82 98 -86 102 -104 86 -27 -25 -229
-288 -298 -389 -33 -48 -67 -107 -76 -131 -20 -51 -39 -55 -85 -16 -63 53 -74
125 -34 211 57 122 319 446 526 649 188 185 372 323 431 323 25 0 58 -30 58
-53 0 -4 -69 -81 -152 -170 -147 -156 -268 -297 -268 -311 0 -13 36 -4 198 49
270 89 554 243 695 377 62 59 70 83 35 115 -49 43 -81 48 -318 47 -213 0 -233
-2 -377 -32 -235 -49 -474 -134 -654 -231 l-56 -31 -7 -62 c-3 -34 -4 -63 -2
-65 6 -6 105 46 205 106 79 48 131 64 131 41 0 -18 -203 -214 -271 -263 -37
-26 -89 -56 -115 -67 -37 -16 -55 -31 -73 -63 -87 -152 -310 -388 -461 -487
-195 -128 -361 -194 -521 -208 -126 -11 -177 8 -206 75 -21 52 -16 122 12 172
14 24 20 39 13 34 -16 -13 -364 -273 -389 -292 -11 -7 -31 -13 -45 -13 -30 0
-84 48 -84 75 0 45 133 247 320 484 202 256 715 723 795 723 27 0 75 -36 75
-57 0 -8 -30 -42 -66 -76 -74 -69 -425 -440 -560 -592 -96 -108 -194 -229
-194 -239 0 -4 19 6 43 22 83 58 322 182 349 182 20 0 34 -10 53 -37 14 -21
25 -41 25 -45 0 -3 -36 -46 -80 -93 -44 -47 -80 -91 -80 -96 0 -14 54 -11 107
7 173 57 441 235 638 426 l103 98 -29 31 c-16 17 -33 47 -39 67 -25 90 -5 144
90 246 l61 64 -34 26 c-167 127 -543 125 -913 -5 -222 -78 -534 -271 -580
-360 -14 -27 -13 -29 6 -29 55 0 327 130 429 205 78 57 101 69 113 57 34 -34
-177 -261 -317 -342 -58 -33 -142 -60 -187 -60 -72 0 -158 54 -194 122 -20 39
-17 119 7 184 64 170 387 368 753 463 198 52 299 64 474 58 242 -8 390 -58
504 -171 l57 -55 88 55 c198 125 366 192 598 238 206 41 450 44 587 7z m-3782
-131 c12 -8 13 -16 2 -55 -22 -82 -40 -117 -59 -113 -25 5 -27 39 -7 101 24
75 35 86 64 67z m4899 -118 c5 -9 15 -45 22 -80 10 -49 10 -65 1 -74 -22 -22
-45 6 -63 77 -10 37 -15 74 -12 81 7 20 41 17 52 -4z m-4986 -246 c8 -21 -14
-138 -29 -155 -7 -8 -20 -11 -30 -7 -14 5 -16 15 -11 65 8 78 22 111 46 111
10 0 21 -7 24 -14z m5062 -106 c11 -18 21 -139 13 -155 -12 -20 -35 -19 -46 3
-12 22 -24 147 -15 155 10 10 41 8 48 -3z m-5110 -330 c0 -84 0 -85 -25 -85
-24 0 -25 3 -28 67 -3 73 10 111 36 106 14 -3 17 -17 17 -88z m5133 -32 c12
-12 17 -124 6 -152 -3 -9 -17 -16 -30 -16 -23 0 -24 2 -24 84 0 79 4 91 31 95
3 1 10 -4 17 -11z m-5114 -280 c14 -80 11 -130 -6 -141 -27 -17 -37 1 -47 79
-10 82 -7 94 25 94 18 0 24 -7 28 -32z m5090 -128 c-1 -102 -27 -151 -61 -117
-13 13 -12 27 13 145 3 17 10 22 27 20 19 -3 22 -9 21 -48z m-5037 -212 c6 -7
17 -41 25 -76 14 -54 14 -65 2 -77 -22 -22 -43 -7 -55 39 -5 22 -14 55 -18 71
-10 38 -4 55 19 55 9 0 22 -6 27 -12z m4966 -113 c3 -8 -4 -45 -17 -82 -18
-53 -27 -69 -44 -71 -33 -5 -36 19 -11 97 19 60 27 71 45 71 12 0 24 -7 27
-15z m-4829 -286 c30 -69 33 -97 10 -106 -21 -8 -37 11 -64 79 -25 60 -22 88
8 88 14 0 27 -17 46 -61z m4701 -59 c9 -30 -54 -145 -80 -145 -31 0 -30 36 5
104 32 64 62 81 75 41z m-4530 -272 c39 -65 42 -93 10 -93 -13 0 -33 19 -57
55 -38 56 -48 95 -25 103 22 8 35 -4 72 -65z m4353 -54 c2 -11 -14 -46 -35
-77 -28 -43 -43 -57 -58 -55 -33 5 -28 40 16 101 42 60 71 71 77 31z m-4143
-240 c48 -60 54 -87 19 -92 -26 -4 -117 108 -108 132 12 30 43 16 89 -40z
m3929 -49 c3 -9 -12 -34 -36 -62 -47 -55 -57 -63 -79 -63 -34 0 -27 30 19 85
47 56 84 71 96 40z m-3676 -216 c54 -50 64 -81 30 -87 -22 -4 -128 86 -128
108 0 46 35 39 98 -21z m3420 -50 c3 -19 -104 -109 -129 -109 -9 0 -20 8 -23
17 -10 25 90 114 124 110 14 -1 26 -9 28 -18z m-3141 -170 c63 -41 81 -73 48
-85 -15 -6 -145 71 -145 86 0 18 13 40 23 40 6 0 39 -19 74 -41z m2843 -53 c0
-29 -116 -103 -139 -89 -31 19 -16 43 49 82 68 41 90 43 90 7z m-2525 -128
c50 -25 65 -37 65 -54 0 -34 -22 -35 -93 -2 -68 32 -85 51 -66 74 16 19 20 18
94 -18z m2200 -48 c0 -20 -10 -29 -49 -48 -69 -33 -102 -38 -110 -17 -9 25 0
34 68 65 72 34 91 34 91 0z m-1859 -90 c68 -24 77 -31 68 -53 -8 -21 -37 -21
-100 -1 -58 20 -79 37 -71 58 8 21 32 20 103 -4z m1519 -40 c0 -21 -8 -27 -55
-42 -67 -21 -106 -22 -113 -5 -9 24 8 37 74 57 79 23 94 22 94 -10z m-1165
-44 c59 -11 65 -14 65 -37 0 -22 -4 -24 -45 -23 -103 1 -148 25 -114 59 9 8
18 15 22 14 4 0 36 -6 72 -13z m805 -36 c0 -28 -24 -37 -111 -39 -85 -2 -82
48 3 60 85 12 108 8 108 -21z m-359 -15 c12 -31 -15 -45 -85 -45 -73 0 -109
16 -98 44 9 23 175 24 183 1z"/>
<path d="M6245 4710 c-16 -16 -25 -33 -21 -37 7 -8 27 13 47 50 14 25 7 21
-26 -13z"/>
</g>
</svg>
